<svg xmlns="http://www.w3.org/2000/svg" xmlns:xlink="http://www.w3.org/1999/xlink" width="114" zoomAndPan="magnify" viewBox="0 0 40.5 47.039997" height="54" preserveAspectRatio="xMidYMid meet" version="1.0"><defs><clipPath id="282dfa4573"><path d="M 14.691406 9 L 39.851562 9 L 39.851562 34.414062 L 14.691406 34.414062 Z M 14.691406 9 " clip-rule="nonzero"/></clipPath><clipPath id="d85c12b5ec"><path d="M 14.691406 7 L 39.851562 7 L 39.851562 34.414062 L 14.691406 34.414062 Z M 14.691406 7 " clip-rule="nonzero"/></clipPath><clipPath id="143edf8645"><path d="M 31 5.015625 L 39.851562 5.015625 L 39.851562 10 L 31 10 Z M 31 5.015625 " clip-rule="nonzero"/></clipPath><clipPath id="7fe5222bc5"><path d="M 34 5.015625 L 36 5.015625 L 36 7 L 34 7 Z M 34 5.015625 " clip-rule="nonzero"/></clipPath><clipPath id="b51f433319"><path d="M 33 5.015625 L 36 5.015625 L 36 8 L 33 8 Z M 33 5.015625 " clip-rule="nonzero"/></clipPath><clipPath id="58e560cb05"><path d="M 36 6 L 39.851562 6 L 39.851562 9 L 36 9 Z M 36 6 " clip-rule="nonzero"/></clipPath><clipPath id="0bf70be63f"><path d="M 39 5.015625 L 39.851562 5.015625 L 39.851562 8 L 39 8 Z M 39 5.015625 " clip-rule="nonzero"/></clipPath><clipPath id="16c1c80b32"><path d="M 38 5.015625 L 39.851562 5.015625 L 39.851562 9 L 38 9 Z M 38 5.015625 " clip-rule="nonzero"/></clipPath></defs><g clip-path="url(#282dfa4573)"><path fill="#e2d8d0" d="M 15.183594 33.910156 C 15.320312 33.929688 15.449219 34.132812 15.574219 33.972656 C 15.703125 33.9375 15.824219 33.777344 15.949219 34.097656 C 16.097656 34.460938 16.238281 34.078125 16.386719 34.296875 C 16.53125 34.183594 16.683594 34.175781 16.851562 34.371094 C 17.023438 34.039062 17.183594 34.503906 17.347656 34.246094 C 17.507812 34.371094 17.667969 34.507812 17.824219 34.050781 C 17.996094 33.660156 18.175781 33.953125 18.355469 33.878906 C 18.53125 34.277344 18.714844 33.640625 18.898438 33.753906 C 19.160156 33.578125 19.421875 34.277344 19.683594 33.621094 C 19.949219 33.613281 20.214844 33.429688 20.480469 33.535156 C 20.746094 33.410156 21.011719 33.929688 21.277344 33.492188 C 21.601562 33.75 21.921875 33.546875 22.242188 33.492188 C 22.5625 33.25 22.886719 33.308594 23.207031 33.539062 C 23.527344 33.671875 23.847656 33.46875 24.167969 33.613281 C 24.488281 33.570312 24.808594 33.5 25.128906 33.699219 C 25.449219 34.066406 25.769531 33.886719 26.089844 33.789062 C 26.355469 33.933594 26.628906 33.953125 26.914062 33.855469 C 27.1875 33.90625 27.464844 33.921875 27.742188 33.90625 C 28.015625 33.796875 28.292969 33.957031 28.570312 33.929688 C 28.847656 33.921875 29.125 34.015625 29.40625 33.933594 C 29.683594 33.675781 29.964844 34.082031 30.242188 33.9375 C 30.523438 33.679688 30.800781 34.140625 31.082031 33.957031 C 31.355469 33.792969 31.628906 33.734375 31.902344 33.96875 C 32.175781 33.722656 32.449219 34.140625 32.722656 33.960938 C 32.996094 34.183594 33.269531 33.804688 33.542969 33.933594 C 33.816406 33.945312 34.089844 33.8125 34.363281 33.902344 C 34.636719 33.882812 34.910156 33.886719 35.183594 33.875 C 35.457031 33.863281 35.730469 33.660156 36.003906 33.859375 C 36.265625 33.886719 36.527344 33.773438 36.789062 33.863281 C 37.050781 33.824219 37.3125 33.722656 37.574219 33.910156 C 37.832031 33.898438 38.09375 33.738281 38.355469 34.007812 C 38.617188 34.230469 38.878906 33.972656 39.140625 34.136719 C 39.402344 34.253906 39.664062 34.136719 39.925781 34.253906 C 40.191406 33.867188 40.453125 33.863281 40.722656 34.332031 C 41.042969 34.382812 41.363281 34.625 41.683594 34.363281 C 42.007812 34.398438 42.328125 33.921875 42.648438 34.355469 C 42.96875 34.25 43.289062 34.394531 43.613281 34.320312 C 43.933594 34.667969 44.253906 34.085938 44.574219 34.265625 C 44.894531 34.332031 45.214844 34.085938 45.535156 34.207031 C 45.808594 34.496094 46.078125 33.949219 46.347656 34.160156 C 46.621094 34.191406 46.890625 34.246094 47.164062 34.125 C 47.433594 34.160156 47.707031 33.925781 47.980469 34.101562 C 48.257812 34.253906 48.535156 33.800781 48.8125 34.101562 C 49.089844 34.1875 49.371094 33.894531 49.648438 34.101562 C 49.925781 34.242188 50.203125 34.089844 50.484375 34.089844 C 50.824219 34.351562 51.167969 34.011719 51.511719 34.046875 C 51.855469 33.957031 52.195312 34.164062 52.539062 33.992188 C 52.882812 33.632812 53.222656 34.058594 53.566406 33.925781 C 53.910156 33.863281 54.253906 34.097656 54.59375 33.855469 C 54.9375 33.878906 55.28125 34.179688 55.621094 33.78125 C 55.964844 33.730469 56.308594 33.953125 56.648438 33.710938 C 56.992188 33.730469 57.335938 33.539062 57.679688 33.648438 C 58.019531 33.652344 58.363281 33.597656 58.707031 33.597656 C 59.046875 33.445312 59.390625 33.355469 59.734375 33.5625 C 60.078125 33.429688 60.417969 33.265625 60.761719 33.546875 L 60.761719 9.054688 L 14.738281 9.054688 L 14.738281 33.867188 C 14.890625 33.847656 15.039062 33.910156 15.183594 33.910156 Z M 15.183594 33.910156 " fill-opacity="1" fill-rule="nonzero"/></g><g clip-path="url(#d85c12b5ec)"><path fill="#a6a6a6" d="M 14.738281 7.539062 L 14.738281 32.640625 C 15.039062 32.84375 15.339844 32.671875 15.636719 32.800781 C 15.9375 33.21875 16.234375 33.40625 16.535156 32.9375 C 16.835938 33.402344 17.136719 33.304688 17.441406 33.054688 C 17.742188 32.851562 18.039062 33.269531 18.34375 33.152344 C 18.652344 33.035156 18.945312 33.507812 19.25 33.230469 C 19.554688 33.566406 19.855469 33.1875 20.160156 33.292969 C 20.460938 32.929688 20.765625 33.089844 21.066406 33.339844 C 21.371094 33.152344 21.671875 33.082031 21.976562 33.375 C 22.277344 33.410156 22.582031 33.464844 22.882812 33.398438 C 23.214844 33.261719 23.546875 33.527344 23.875 33.410156 C 24.207031 33.550781 24.539062 33.621094 24.867188 33.410156 C 25.199219 33.917969 25.53125 33.386719 25.859375 33.402344 C 26.191406 33.402344 26.523438 33.601562 26.851562 33.386719 C 27.183594 33.148438 27.515625 33.539062 27.84375 33.367188 C 28.175781 33.148438 28.507812 33.394531 28.835938 33.339844 C 29.167969 33.09375 29.496094 33.703125 29.828125 33.3125 C 30.160156 33.570312 30.488281 33.363281 30.820312 33.277344 C 31.152344 33.546875 31.480469 33.109375 31.8125 33.246094 C 32.144531 33.292969 32.472656 33.332031 32.804688 33.214844 L 33.792969 33.1875 C 34.132812 33.574219 34.46875 33.28125 34.804688 33.164062 C 35.140625 32.539062 35.476562 33.425781 35.8125 33.148438 C 36.148438 33.171875 36.484375 32.945312 36.824219 33.144531 C 37.160156 32.769531 37.496094 33.136719 37.828125 33.148438 C 38.164062 33.039062 38.5 33.199219 38.835938 33.164062 C 39.171875 33.1875 39.507812 33.125 39.84375 33.1875 C 40.179688 32.976562 40.515625 33.289062 40.851562 33.226562 C 41.1875 33.183594 41.523438 33.328125 41.859375 33.277344 C 42.195312 33.277344 42.53125 33.011719 42.867188 33.335938 C 43.203125 33.257812 43.539062 33.460938 43.875 33.414062 C 44.203125 33.582031 44.527344 33.21875 44.855469 33.5 C 45.183594 33.414062 45.507812 33.800781 45.835938 33.582031 C 46.164062 33.203125 46.488281 34.050781 46.816406 33.667969 C 47.144531 33.355469 47.472656 33.609375 47.800781 33.75 C 48.125 33.652344 48.453125 34.144531 48.78125 33.824219 C 49.109375 34.097656 49.4375 33.695312 49.761719 33.894531 C 50.089844 33.90625 50.417969 33.65625 50.746094 33.953125 C 51.074219 34.175781 51.402344 33.589844 51.730469 34 C 52.058594 34.296875 52.382812 33.925781 52.710938 34.03125 C 53.039062 33.773438 53.367188 33.980469 53.695312 34.046875 C 53.992188 34.410156 54.285156 33.957031 54.582031 34.046875 C 54.878906 33.972656 55.175781 34 55.472656 34.03125 C 55.769531 34.03125 56.066406 34.214844 56.363281 33.996094 C 56.660156 33.558594 56.957031 34.136719 57.253906 33.933594 C 57.550781 34.203125 57.847656 34.121094 58.144531 33.84375 C 58.441406 33.734375 58.734375 33.789062 59.03125 33.71875 C 59.324219 33.539062 59.617188 33.851562 59.910156 33.558594 C 60.199219 33.460938 60.488281 33.558594 60.777344 33.355469 L 60.777344 7.539062 Z M 14.738281 7.539062 " fill-opacity="1" fill-rule="nonzero"/></g><g clip-path="url(#143edf8645)"><path fill="#050404" d="M 44.113281 6.132812 C 44.164062 6.21875 44.113281 6.308594 44.082031 6.398438 C 44.269531 6.476562 43.855469 6.539062 43.917969 6.613281 C 43.957031 6.640625 43.996094 6.65625 44.042969 6.664062 C 43.992188 6.703125 43.960938 6.757812 43.957031 6.820312 C 43.957031 6.863281 43.972656 6.898438 44 6.929688 C 43.523438 7.007812 44.203125 7.113281 43.953125 7.195312 C 43.753906 7.238281 43.824219 7.285156 43.898438 7.335938 C 43.96875 7.382812 44.03125 7.417969 43.902344 7.460938 C 43.910156 7.488281 43.921875 7.507812 43.9375 7.527344 C 43.988281 7.597656 44.054688 7.664062 43.847656 7.726562 C 43.777344 7.75 43.753906 7.773438 43.75 7.796875 C 43.746094 7.863281 43.890625 7.929688 43.792969 7.992188 C 43.664062 8.019531 43.636719 8.050781 43.648438 8.085938 C 43.667969 8.132812 43.777344 8.183594 43.761719 8.230469 C 43.757812 8.242188 43.746094 8.253906 43.738281 8.257812 C 43.695312 8.34375 43.445312 8.417969 43.636719 8.507812 C 43.648438 8.511719 43.664062 8.519531 43.679688 8.523438 C 43.648438 8.527344 43.617188 8.535156 43.59375 8.539062 C 43.433594 8.574219 43.433594 8.609375 43.476562 8.652344 C 43.523438 8.691406 43.640625 8.742188 43.625 8.789062 C 43.789062 8.882812 43.5625 8.964844 43.566406 9.054688 L 43.367188 9.050781 L 43.4375 9.050781 L 42.953125 9.050781 C 43.035156 9.050781 42.996094 9.050781 42.917969 9.050781 L 42.710938 9.039062 L 42.671875 9.039062 C 42.757812 9.039062 42.566406 9.039062 42.445312 9.039062 C 42.394531 9.039062 42.351562 9.039062 42.347656 9.039062 L 42.011719 9.039062 L 39.609375 9.003906 L 39.417969 9.003906 L 38.96875 8.996094 L 38.25 8.996094 L 37.75 8.988281 L 37.0625 8.988281 L 36.671875 8.953125 L 36.457031 8.953125 L 34.929688 8.929688 C 34.808594 8.929688 34.742188 8.929688 34.578125 8.925781 C 34.492188 8.925781 34.503906 8.925781 34.246094 8.921875 L 34.195312 8.921875 L 33.988281 8.917969 C 33.578125 8.90625 33.722656 8.910156 33.953125 8.917969 L 33.980469 8.917969 L 33.605469 8.910156 L 33.386719 8.910156 C 33.359375 8.910156 33.367188 8.910156 33.378906 8.910156 L 33.445312 8.910156 L 33.390625 8.910156 L 33.144531 8.902344 L 32.910156 8.898438 L 32.976562 8.898438 L 33.234375 8.90625 L 32.910156 8.898438 L 32.765625 8.898438 C 32.730469 8.898438 32.695312 8.898438 32.65625 8.898438 L 32.441406 8.898438 C 32.289062 8.898438 32.335938 8.816406 32.421875 8.683594 C 32.589844 8.636719 32.453125 8.570312 32.40625 8.5 C 32.386719 8.484375 32.386719 8.460938 32.394531 8.441406 C 32.566406 8.398438 32.472656 8.355469 32.371094 8.296875 C 32.273438 8.242188 32.152344 8.183594 32.363281 8.125 C 32.398438 8.082031 32.414062 8.035156 32.410156 7.976562 C 32.394531 7.90625 32.371094 7.835938 32.332031 7.773438 L 32.332031 7.765625 C 32.339844 7.722656 32.359375 7.679688 32.371094 7.640625 C 32.398438 7.566406 32.390625 7.5 32.347656 7.4375 C 32.332031 7.410156 32.3125 7.386719 32.289062 7.371094 C 32.5625 7.242188 31.964844 7.089844 32.246094 6.957031 C 32.015625 6.8125 33.097656 6.699219 32.203125 6.546875 C 32.539062 6.417969 32.476562 6.289062 32.164062 6.152344 C 32.507812 6.03125 31.917969 5.894531 32.125 5.789062 C 32.125 5.675781 31.65625 5.558594 32.09375 5.476562 C 32.28125 5.390625 32.144531 5.308594 32.070312 5.234375 C 31.683594 5.089844 31.980469 5.019531 32.042969 5.015625 L 32.128906 5.015625 L 32.335938 5.019531 L 32.382812 5.019531 L 32.523438 5.023438 L 32.722656 5.027344 L 32.980469 5.027344 L 33.203125 5.035156 L 33.328125 5.046875 L 33.539062 5.046875 L 33.78125 5.054688 L 33.804688 5.054688 L 34.046875 5.058594 L 34.253906 5.058594 L 34.453125 5.066406 L 34.851562 5.078125 L 35.066406 5.082031 L 35.558594 5.09375 L 35.765625 5.097656 L 38.925781 5.183594 L 39.125 5.191406 L 39.699219 5.203125 L 39.90625 5.210938 L 40.164062 5.21875 L 40.371094 5.222656 L 40.824219 5.234375 L 41.027344 5.238281 L 41.273438 5.246094 L 41.488281 5.253906 L 41.894531 5.261719 L 42.113281 5.269531 L 42.445312 5.277344 L 42.773438 5.285156 L 43.023438 5.292969 L 43.082031 5.292969 L 43.339844 5.296875 L 43.792969 5.296875 L 44.003906 5.304688 L 44.167969 5.304688 C 43.800781 5.386719 43.902344 5.457031 44.03125 5.527344 C 44.078125 5.550781 44.125 5.574219 44.15625 5.597656 C 44.121094 5.640625 44.023438 5.683594 43.980469 5.726562 C 43.941406 5.773438 43.953125 5.8125 44.140625 5.867188 L 44.167969 5.878906 C 44.375 5.96875 44.132812 6.046875 44.113281 6.132812 Z M 44.113281 6.132812 " fill-opacity="1" fill-rule="nonzero"/></g><g clip-path="url(#7fe5222bc5)"><path fill="#754a06" d="M 35.050781 6.277344 C 34.988281 6.464844 34.855469 6.671875 34.636719 6.679688 C 34.390625 6.6875 34.257812 6.453125 34.191406 6.253906 C 34.066406 5.867188 34.019531 5.472656 34.050781 5.066406 L 34.253906 5.066406 C 34.234375 5.378906 34.257812 5.691406 34.332031 5.996094 C 34.371094 6.152344 34.488281 6.625 34.730469 6.421875 C 34.878906 6.304688 34.894531 6.054688 34.902344 5.882812 C 34.921875 5.617188 34.902344 5.351562 34.847656 5.085938 L 35.066406 5.09375 C 35.152344 5.492188 35.167969 5.914062 35.050781 6.277344 Z M 35.050781 6.277344 " fill-opacity="1" fill-rule="nonzero"/></g><g clip-path="url(#b51f433319)"><path fill="#754a06" d="M 35.707031 6.328125 C 35.636719 6.777344 35.53125 7.453125 35.050781 7.660156 C 34.570312 7.863281 34.074219 7.449219 33.835938 7.058594 C 33.539062 6.5625 33.421875 5.949219 33.363281 5.382812 C 33.351562 5.28125 33.339844 5.167969 33.328125 5.050781 L 33.542969 5.050781 C 33.546875 5.171875 33.558594 5.292969 33.570312 5.414062 C 33.625 5.910156 33.734375 6.453125 33.984375 6.894531 C 34.179688 7.246094 34.671875 7.734375 35.082031 7.394531 C 35.402344 7.132812 35.464844 6.574219 35.519531 6.195312 C 35.574219 5.832031 35.585938 5.46875 35.5625 5.101562 L 35.769531 5.105469 C 35.792969 5.515625 35.769531 5.921875 35.707031 6.328125 Z M 35.707031 6.328125 " fill-opacity="1" fill-rule="nonzero"/></g><path fill="#754a06" d="M 38.320312 8.457031 C 38.339844 8.507812 38.4375 8.785156 38.480469 8.976562 L 38.25 8.976562 C 38.238281 8.921875 38.226562 8.871094 38.21875 8.835938 C 38.164062 8.632812 38.101562 8.433594 38.019531 8.238281 C 37.984375 8.144531 37.941406 7.996094 37.863281 7.929688 C 37.800781 7.875 37.738281 7.875 37.679688 7.9375 C 37.660156 7.992188 37.652344 8.046875 37.652344 8.109375 C 37.621094 8.402344 37.652344 8.691406 37.75 8.972656 L 37.53125 8.972656 C 37.433594 8.636719 37.410156 8.292969 37.46875 7.945312 C 37.539062 7.59375 37.871094 7.582031 38.058594 7.859375 C 38.175781 8.046875 38.261719 8.246094 38.320312 8.457031 Z M 38.320312 8.457031 " fill-opacity="1" fill-rule="nonzero"/><path fill="#754a06" d="M 38.746094 8.28125 C 38.84375 8.507812 38.917969 8.742188 38.96875 8.984375 L 38.761719 8.984375 C 38.660156 8.488281 38.445312 8.039062 38.121094 7.648438 C 37.953125 7.4375 37.503906 6.890625 37.253906 7.265625 C 37.089844 7.511719 37.117188 7.886719 37.132812 8.167969 C 37.152344 8.4375 37.199219 8.703125 37.277344 8.960938 L 37.066406 8.960938 C 36.980469 8.65625 36.929688 8.347656 36.921875 8.03125 C 36.917969 7.710938 36.917969 7.261719 37.1875 7.03125 C 37.488281 6.773438 37.828125 7.042969 38.050781 7.265625 C 38.347656 7.558594 38.578125 7.898438 38.746094 8.28125 Z M 38.746094 8.28125 " fill-opacity="1" fill-rule="nonzero"/><g clip-path="url(#58e560cb05)"><path fill="#754a06" d="M 39.609375 8.996094 L 39.417969 8.996094 C 39.351562 8.515625 39.121094 8.039062 38.863281 7.667969 C 38.539062 7.1875 37.824219 6.386719 37.164062 6.628906 C 36.570312 6.847656 36.550781 7.722656 36.574219 8.238281 C 36.585938 8.480469 36.617188 8.71875 36.671875 8.953125 L 36.457031 8.953125 C 36.347656 8.46875 36.332031 7.980469 36.402344 7.488281 C 36.457031 7.136719 36.597656 6.757812 36.898438 6.542969 C 37.257812 6.285156 37.710938 6.390625 38.066406 6.605469 C 38.777344 7.03125 39.300781 7.808594 39.527344 8.597656 C 39.566406 8.726562 39.59375 8.859375 39.609375 8.996094 Z M 39.609375 8.996094 " fill-opacity="1" fill-rule="nonzero"/></g><g clip-path="url(#0bf70be63f)"><path fill="#754a06" d="M 39.699219 5.699219 C 39.683594 5.539062 39.683594 5.378906 39.699219 5.21875 L 39.90625 5.222656 C 39.875 5.53125 39.898438 5.835938 39.976562 6.136719 C 40.039062 6.417969 40.144531 6.722656 40.382812 6.90625 C 40.65625 7.121094 41.039062 7.117188 41.234375 6.804688 C 41.5 6.378906 41.4375 5.753906 41.273438 5.257812 L 41.488281 5.261719 C 41.503906 5.3125 41.515625 5.367188 41.527344 5.417969 C 41.613281 5.808594 41.648438 6.242188 41.527344 6.628906 C 41.441406 6.925781 41.238281 7.203125 40.914062 7.253906 C 40.550781 7.316406 40.210938 7.097656 40.015625 6.804688 C 39.8125 6.484375 39.734375 6.070312 39.699219 5.699219 Z M 39.699219 5.699219 " fill-opacity="1" fill-rule="nonzero"/></g><g clip-path="url(#16c1c80b32)"><path fill="#754a06" d="M 42.175781 6.515625 C 42.078125 7.167969 41.675781 8.195312 40.886719 8.199219 C 40.007812 8.199219 39.570312 7.203125 39.289062 6.523438 C 39.109375 6.097656 38.988281 5.652344 38.929688 5.195312 L 39.128906 5.199219 C 39.144531 5.308594 39.167969 5.40625 39.183594 5.488281 C 39.253906 5.835938 39.359375 6.171875 39.5 6.5 C 39.746094 7.089844 40.160156 8.058594 40.945312 7.992188 C 41.554688 7.9375 41.867188 7.070312 41.960938 6.554688 C 42.042969 6.121094 42.023438 5.695312 41.898438 5.269531 L 42.117188 5.277344 C 42.21875 5.6875 42.242188 6.097656 42.175781 6.515625 Z M 42.175781 6.515625 " fill-opacity="1" fill-rule="nonzero"/></g><path fill="#754a06" d="M 34.183594 8.839844 C 34.035156 8.101562 33.617188 7.476562 32.8125 7.402344 C 32.65625 7.386719 32.503906 7.398438 32.347656 7.429688 C 32.390625 7.496094 32.398438 7.5625 32.371094 7.632812 C 32.421875 7.621094 32.476562 7.613281 32.53125 7.605469 C 32.769531 7.578125 32.996094 7.613281 33.210938 7.710938 C 33.429688 7.8125 33.601562 7.964844 33.730469 8.164062 C 33.839844 8.355469 33.917969 8.558594 33.960938 8.773438 C 33.972656 8.816406 33.984375 8.859375 33.992188 8.910156 L 34.199219 8.914062 C 34.191406 8.886719 34.183594 8.863281 34.183594 8.839844 Z M 33.019531 7.960938 C 32.8125 7.824219 32.582031 7.761719 32.332031 7.765625 C 32.371094 7.832031 32.398438 7.898438 32.410156 7.972656 C 32.597656 7.980469 32.769531 8.039062 32.925781 8.144531 C 33.191406 8.328125 33.34375 8.582031 33.390625 8.90625 L 33.597656 8.90625 C 33.550781 8.503906 33.355469 8.1875 33.019531 7.960938 Z M 33.390625 8.902344 L 33.445312 8.902344 Z M 32.375 8.289062 C 32.472656 8.339844 32.566406 8.390625 32.398438 8.429688 C 32.386719 8.453125 32.390625 8.472656 32.40625 8.492188 C 32.566406 8.457031 32.671875 8.515625 32.726562 8.667969 C 32.761719 8.757812 32.742188 8.832031 32.664062 8.890625 C 32.699219 8.894531 32.734375 8.894531 32.773438 8.890625 L 32.914062 8.890625 C 32.945312 8.816406 32.949219 8.738281 32.933594 8.660156 C 32.90625 8.535156 32.839844 8.433594 32.730469 8.363281 C 32.621094 8.289062 32.5 8.265625 32.375 8.289062 Z M 32.375 8.289062 " fill-opacity="1" fill-rule="nonzero"/></svg>